# xmcd CD database file
#
# Track frame offsets:
#	150
#	21095
#	38427
#	49439
#	60937
#	79111
#	89732
#	115170
#	131621
#	155659
#	175468
#	196230
#	216692
#
# Disc length: 3142 seconds
#
# Revision: 4
# Processed by: cddbd v1.5.2PL0 Copyright (c) Steve Scherf et al.
# Submitted via: CDex 1.70beta2
#
DISCID=b70c440d
DTITLE=Romano - Sclavis - Texier  - Le Querrec - African Flashback
DYEAR=2005
DGENRE=Jazz
TTITLE0=Berbère
TTITLE1=Derrière le sable
TTITLE2=Harvest
TTITLE3=Entre chien et loup
TTITLE4=Three children
TTITLE5=African Panther 69
TTITLE6=Surreal politik
TTITLE7=Viso di donna
TTITLE8=Fô lion
TTITLE9=Le long du temps
TTITLE10=55 wheels
TTITLE11=Look the lobis
TTITLE12=Dieu n'existe pas
EXTD=YEAR: 2005
EXTT0=
EXTT1=
EXTT2=
EXTT3=
EXTT4=
EXTT5=
EXTT6=
EXTT7=
EXTT8=
EXTT9=
EXTT10=
EXTT11=
EXTT12=
PLAYORDER=
